<svg xmlns="http://www.w3.org/2000/svg" viewBox="0 0 60.8 61.4">
  <defs>
    <linearGradient id="g" x1="0" y1="0" x2="1" y2="1">
      <stop offset="0" stop-color="#e23028"/>
      <stop offset=".55" stop-color="#c01818"/>
      <stop offset="1" stop-color="#8c0d0d"/>
    </linearGradient>
  </defs>
  <path fill="url(#g)" d="M43.742188,9.374001c-2.130859-.709961-3.954102-1.74707-5.717773-2.749512-2.755859-1.567871-5.381836-3.061035-8.844238-3.061035-.578613,0-1.179688.041504-1.80957.131836l-.008789.000977c-7.790527.973633-15.725586,4.674316-20.708496,9.657227-4.263184,3.65625-3.913574,8.421875-3.542969,13.466797.211426,2.880371.429688,5.858398-.32959,8.517578-1.866699,7.466797,3.60498,12.318359,9.796387,16.446289l.523438.297852c6.717285,3.841797,11.570801,6.618164,20.199219,6.618164,6.125977,0,9.948242-4.441406,13.320312-8.360352,1.47168-1.709961,2.862305-3.326172,4.367188-4.530273,5.678711-3.552734,5.628906-9.21875,5.581055-14.697266-.017578-2.006348-.035156-4.080566.236328-5.98291,1.654297-7.45166-2.253906-12.152344-13.0625-15.755371ZM55.103516,24.711891c-.012695.055176-.022461.111816-.03125.168457-.289062,2.026367-.271484,4.158203-.253906,6.220215.054688,6.351562-.234375,10.393555-4.710938,13.191406-.075195.046875-.146484.097656-.214844.152344-1.62793,1.301758-3.06543,2.972656-4.587891,4.742188-3.441406,3.999023-6.681641,7.763672-12.004883,7.763672-8.162598,0-12.604004-2.540039-19.327637-6.385742l-.465332-.265625c-6.530273-4.363281-10.539062-8.493164-9.023926-14.552734.825684-2.886719.595215-6.021973.372559-9.053223-.407715-5.556152-.415527-9.135254,2.908203-11.984375.044922-.038086.085449-.075684.124512-.115234,4.723633-4.723145,12.268066-8.232422,19.69043-9.160156,3.83252-.543945,6.444824.929199,9.581543,2.712402,1.75.995605,3.733398,2.124023,6.029297,2.88916,12.235352,4.078125,12.957031,8.983398,11.914062,13.677246Z"/>
  <path fill="url(#g)" d="M53.318359,31.140114c-.017578-2.144531-.036133-4.333984.269531-6.470215.012695-.094238.030273-.187988.050781-.282227,1.058594-4.765137-.399414-8.422363-10.923828-11.930176-2.435547-.811523-4.486328-1.978516-6.296875-3.008301-2.487305-1.414551-4.636719-2.636719-7.224121-2.636719-.445312,0-.908691.035156-1.416504.107422-7.120117.890137-14.329102,4.235352-18.826172,8.731445-.066895.067383-.138672.134277-.213379.197754-2.847656,2.440918-2.769531,5.513184-2.38623,10.733887.232422,3.162109.472656,6.432617-.419922,9.550781-1.300293,5.203125,2.235352,8.792969,8.364258,12.890625l.417969.236328c6.518066,3.727539,10.822266,6.189453,18.585938,6.189453,4.634766,0,7.657227-3.511719,10.856445-7.229492,1.581055-1.836914,3.0625-3.558594,4.800781-4.949219.115234-.09082.233398-.174805.356445-.251953,3.896484-2.435547,4.056641-5.923828,4.004883-11.879395ZM42.865234,24.095192l-14,17.999512c-.595703.765625-1.501953,1.225586-2.47168,1.253906-.03125.000977-.0625.000977-.09375.000977-.935547,0-1.827637-.40332-2.445801-1.109375l-7-8c-1.182129-1.351562-1.044922-3.404297.305664-4.586426,1.352051-1.182129,3.404297-1.044922,4.585938.305664l4.406738,5.036621,11.582031-14.891113c1.102539-1.417969,3.145508-1.672363,4.560547-.570312,1.416992,1.102051,1.671875,3.144043.570312,4.560547Z"/>
</svg>
