<?xml version="1.0" encoding="UTF-8"?>
<svg id="Layer_1" xmlns="http://www.w3.org/2000/svg" version="1.1" viewBox="0 0 163.1 57.1">
  <!-- Generator: Adobe Illustrator 30.5.1, SVG Export Plug-In . SVG Version: 2.1.4 Build 3)  -->
  <defs>
    <style>
      .st0 {
        stroke-width: 1.5px;
      }

      .st0, .st1, .st2 {
        stroke: #fff;
      }

      .st0, .st2 {
        stroke-miterlimit: 10;
      }

      .st3 {
        fill: #fff;
      }

      .st1 {
        fill: none;
        stroke-linecap: round;
        stroke-linejoin: round;
        stroke-width: 6.5px;
      }
    </style>
  </defs>
  <g>
    <path d="M108.3,6.8c-2.1-.7-4-1.7-5.7-2.7-2.8-1.6-5.4-3.1-8.8-3.1s-1.2,0-1.8.1h0c-7.8,1-15.7,4.7-20.7,9.7-4.3,3.7-3.9,8.4-3.5,13.5.2,2.9.4,5.9-.3,8.5-1.9,7.5,3.6,12.3,9.8,16.4l.5.3c6.7,3.8,11.6,6.6,20.2,6.6s9.9-4.4,13.3-8.4c1.5-1.7,2.9-3.3,4.4-4.5,5.7-3.6,5.6-9.2,5.6-14.7,0-2,0-4.1.2-6,1.7-7.5-2.3-12.2-13.1-15.8ZM119.7,22.1c0,0,0,.1,0,.2-.3,2-.3,4.2-.3,6.2,0,6.4-.2,10.4-4.7,13.2,0,0-.1,0-.2.2-1.6,1.3-3.1,3-4.6,4.7-3.4,4-6.7,7.8-12,7.8-8.2,0-12.6-2.5-19.3-6.4l-.5-.3c-6.5-4.4-10.5-8.5-9-14.6.8-2.9.6-6,.4-9.1-.4-5.6-.4-9.1,2.9-12,0,0,0,0,.1-.1,4.7-4.7,12.3-8.2,19.7-9.2,3.8-.5,6.4.9,9.6,2.7,1.8,1,3.7,2.1,6,2.9,12.2,4.1,13,9,11.9,13.7Z"/>
    <path d="M117.9,28.6c0-2.1,0-4.3.3-6.5,0,0,0-.2,0-.3,1.1-4.8-.4-8.4-10.9-11.9-2.4-.8-4.5-2-6.3-3-2.5-1.4-4.6-2.6-7.2-2.6s-.9,0-1.4.1c-7.1.9-14.3,4.2-18.8,8.7,0,0-.1.1-.2.2-2.8,2.4-2.8,5.5-2.4,10.7.2,3.2.5,6.4-.4,9.6-1.3,5.2,2.2,8.8,8.4,12.9l.4.2c6.5,3.7,10.8,6.2,18.6,6.2s7.7-3.5,10.9-7.2c1.6-1.8,3.1-3.6,4.8-4.9.1,0,.2-.2.4-.3,3.9-2.4,4.1-5.9,4-11.9ZM107.5,21.5l-14,18c-.6.8-1.5,1.2-2.5,1.3,0,0,0,0,0,0-.9,0-1.8-.4-2.4-1.1l-7-8c-1.2-1.4-1-3.4.3-4.6,1.4-1.2,3.4-1,4.6.3l4.4,5,11.6-14.9c1.1-1.4,3.1-1.7,4.6-.6,1.4,1.1,1.7,3.1.6,4.6Z"/>
  </g>
  <path class="st2" d="M25.9.6c7-1,10.6,3.7,16.6,5.7,9,3,15.4,7.3,13.4,16.3-1,7,2,16-6,21-5,4-9,13-18,13s-14-3-21-7c-6-4-12-9-10-17,2-7-3-16.2,4-22.2C9.9,5.4,17.9,1.6,25.9.6Z"/>
  <path class="st0" d="M31.9,53.6c-8,0-12.3-2.5-19-6.3l-.5-.3c-6.4-4.3-10.1-8.1-8.7-13.7.9-3,.6-6.2.4-9.3-.4-5.3-.5-8.7,2.6-11.4,0,0,.1-.1.2-.2C11.6,8,19,4.5,26.3,3.6c.6,0,1-.1,1.5-.1,2.8,0,5,1.3,7.6,2.7,1.8,1,3.8,2.2,6.2,2.9,11,3.7,12.5,7.8,11.4,12.8,0,0,0,.2,0,.2-.3,2.1-.3,4.3-.3,6.4,0,6-.1,9.9-4.4,12.5,0,0-.2.1-.3.2-1.7,1.3-3.2,3.1-4.7,4.9-3.3,3.9-6.4,7.5-11.4,7.5Z"/>
  <path class="st3" d="M24.9,40.8c-.9,0-1.8-.4-2.4-1.1l-7-8c-1.2-1.4-1-3.4.3-4.6,1.4-1.2,3.4-1,4.6.3l4.4,5,11.6-14.9c1.1-1.4,3.1-1.7,4.6-.6,1.4,1.1,1.7,3.1.6,4.6l-14,18c-.6.8-1.5,1.2-2.5,1.3,0,0,0,0,0,0Z"/>
  <path class="st1" d="M138.8,29.5l7,8,14-18"/>
</svg>